<svg width="24" height="24" viewBox="0 0 24 24" fill="none" xmlns="http://www.w3.org/2000/svg">
<g id="Cart1">
<path id="Vector" d="M7.51222 20.4648C7.92642 20.4604 8.25869 20.1212 8.25437 19.707C8.25006 19.2928 7.91079 18.9605 7.4966 18.9648C7.08241 18.9692 6.75014 19.3084 6.75445 19.7226C6.75877 20.1368 7.09803 20.4691 7.51222 20.4648Z" stroke="black" stroke-width="1.5" stroke-linecap="round" stroke-linejoin="round"/>
<path id="Vector_2" d="M18.0116 20.3554C18.4258 20.3511 18.7581 20.0118 18.7538 19.5976C18.7495 19.1834 18.4102 18.8512 17.996 18.8555C17.5818 18.8598 17.2496 19.199 17.2539 19.6132C17.2582 20.0274 17.5975 20.3597 18.0116 20.3554Z" stroke="black" stroke-width="1.5" stroke-linecap="round" stroke-linejoin="round"/>
<path id="Vector_3" d="M1.3407 4.02808L4.34054 3.99683L6.7232 16.7227L18.7226 16.5977" stroke="black" stroke-width="1.5" stroke-linecap="round" stroke-linejoin="round"/>
<path id="Vector_4" d="M6.68155 12.723L18.3734 12.6012C18.4601 12.6004 18.5439 12.5695 18.6104 12.5138C18.6769 12.4582 18.7221 12.3812 18.7382 12.296L20.0178 5.53229C20.0282 5.47775 20.0263 5.4216 20.0123 5.36789C19.9982 5.31418 19.9725 5.26425 19.9368 5.2217C19.9012 5.17915 19.8565 5.14505 19.8061 5.12185C19.7557 5.09865 19.7007 5.08694 19.6452 5.08756L5.10352 5.23901" stroke="black" stroke-width="1.5" stroke-linecap="round" stroke-linejoin="round"/>
</g>
</svg>
