<svg width="25" height="25" viewBox="0 0 25 25" fill="none" xmlns="http://www.w3.org/2000/svg">
<g id="Cart1">
<path id="Vector" d="M8.51363 20.4648C8.92782 20.4604 9.26009 20.1212 9.25578 19.707C9.25146 19.2928 8.9122 18.9605 8.49801 18.9648C8.08382 18.9692 7.75154 19.3084 7.75586 19.7226C7.76017 20.1368 8.09944 20.4691 8.51363 20.4648Z" stroke="black" stroke-width="1.5" stroke-linecap="round" stroke-linejoin="round"/>
<path id="Vector_2" d="M19.0117 20.3554C19.4259 20.3511 19.7581 20.0118 19.7538 19.5976C19.7495 19.1834 19.4102 18.8512 18.9961 18.8555C18.5819 18.8598 18.2496 19.199 18.2539 19.6132C18.2582 20.0274 18.5975 20.3597 19.0117 20.3554Z" stroke="black" stroke-width="1.5" stroke-linecap="round" stroke-linejoin="round"/>
<path id="Vector_3" d="M2.3418 4.02808L5.34163 3.99683L7.7243 16.7227L19.7237 16.5977" stroke="black" stroke-width="1.5" stroke-linecap="round" stroke-linejoin="round"/>
<path id="Vector_4" d="M7.68155 12.723L19.3734 12.6012C19.4601 12.6004 19.5439 12.5695 19.6104 12.5138C19.6769 12.4582 19.7221 12.3812 19.7382 12.296L21.0178 5.53229C21.0282 5.47775 21.0263 5.4216 21.0123 5.36789C20.9982 5.31418 20.9725 5.26425 20.9368 5.2217C20.9012 5.17915 20.8565 5.14505 20.8061 5.12185C20.7557 5.09865 20.7007 5.08694 20.6452 5.08756L6.10352 5.23901" stroke="black" stroke-width="1.5" stroke-linecap="round" stroke-linejoin="round"/>
</g>
</svg>
