<svg width="31" height="29" viewBox="0 0 31 29" fill="none" xmlns="http://www.w3.org/2000/svg">
<path d="M7.75 10.875V20.1598C7.75 22.3481 7.75 23.4429 8.50692 24.1232C10.2042 25.6481 20.4807 25.9308 22.4931 24.1232C23.25 23.4417 23.25 22.3481 23.25 20.1598V10.875" stroke="#7D8184" stroke-width="1.5" stroke-linecap="round" stroke-linejoin="round"/>
<path d="M7.41384 14.5001L3.93151 11.3464C3.03251 10.5307 2.58301 10.126 2.58301 9.61846C2.58301 9.11337 3.03251 8.70616 3.93022 7.89296L6.51484 5.55362C6.96305 5.14762 7.18651 4.94462 7.45388 4.796C7.72126 4.64616 8.02222 4.55554 8.62155 4.37429L10.7476 3.73266C11.0576 3.63841 11.2139 3.5925 11.3198 3.64808C11.4258 3.70487 11.4593 3.86679 11.5265 4.19183C11.8753 5.89196 13.5208 7.17883 15.4997 7.17883C17.4785 7.17883 19.1241 5.89196 19.4741 4.19183C19.54 3.86679 19.5736 3.70487 19.6808 3.64808C19.7841 3.5925 19.9404 3.63841 20.2517 3.73266L22.3778 4.37429C22.9784 4.55554 23.2794 4.64616 23.5455 4.796C23.8116 4.94583 24.0363 5.14762 24.4845 5.55362L27.0678 7.89296C27.9681 8.70737 28.4163 9.11458 28.4163 9.61966C28.4163 10.1247 27.9668 10.532 27.0691 11.3452L23.5842 14.5001" stroke="#7D8184" stroke-width="1.5" stroke-linecap="round" stroke-linejoin="round"/>
</svg>
