<svg width="31" height="30" viewBox="0 0 31 30" fill="none" xmlns="http://www.w3.org/2000/svg">
<rect x="0.5" y="0.5" width="30" height="29" rx="4.5" stroke="black" stroke-opacity="0.5"/>
<path opacity="0.8" d="M11.4485 23.4411C11.8018 23.4411 12.0882 23.1646 12.0882 22.8235C12.0882 22.4823 11.8018 22.2058 11.4485 22.2058C11.0952 22.2058 10.8088 22.4823 10.8088 22.8235C10.8088 23.1646 11.0952 23.4411 11.4485 23.4411Z" stroke="#7D8184" stroke-width="1.5" stroke-linecap="round" stroke-linejoin="round"/>
<path opacity="0.8" d="M20.4044 23.4411C20.7577 23.4411 21.0441 23.1646 21.0441 22.8235C21.0441 22.4823 20.7577 22.2058 20.4044 22.2058C20.0511 22.2058 19.7647 22.4823 19.7647 22.8235C19.7647 23.1646 20.0511 23.4411 20.4044 23.4411Z" stroke="#7D8184" stroke-width="1.5" stroke-linecap="round" stroke-linejoin="round"/>
<path opacity="0.8" d="M6.33087 9.85303H8.8897L10.8088 20.353H21.0441" stroke="#7D8184" stroke-width="1.5" stroke-linecap="round" stroke-linejoin="round"/>
<path opacity="0.8" d="M10.8088 17.0588H20.7818C20.8558 17.0588 20.9275 17.0341 20.9847 16.9889C21.042 16.9436 21.0812 16.8806 21.0957 16.8106L22.2472 11.2518C22.2565 11.2069 22.2553 11.1607 22.2439 11.1163C22.2324 11.072 22.2109 11.0306 22.1808 10.9953C22.1508 10.9599 22.113 10.9315 22.0702 10.9119C22.0274 10.8924 21.9807 10.8823 21.9333 10.8823H9.52942" stroke="#7D8184" stroke-width="1.5" stroke-linecap="round" stroke-linejoin="round"/>
</svg>
