<svg width="40" height="44" viewBox="0 0 40 44" fill="none" xmlns="http://www.w3.org/2000/svg">
<path d="M12.2376 42.7857H5.0919C4.09886 42.7857 3.1465 42.3455 2.44432 41.5618C1.74214 40.7782 1.34766 39.7154 1.34766 38.6071V5.17857C1.34766 4.07035 1.74214 3.00751 2.44432 2.22388C3.1465 1.44024 4.09886 1 5.0919 1H35.0458C36.0388 1 36.9912 1.44024 37.6934 2.22388C38.3956 3.00751 38.7901 4.07035 38.7901 5.17857V14.6607M38.7901 26.7143L25.2244 41.8536L19.0896 42.7857L19.9536 35.9393L33.4905 20.8L38.7901 26.7143Z" stroke="#00BFA5" stroke-width="2" stroke-linecap="round" stroke-linejoin="round"/>
<path d="M1.34766 22.4199C7.72285 21.1386 14.2986 22.2236 20.0689 25.5088M25.8695 14.8052C26.8244 14.8052 27.7401 14.3819 28.4153 13.6284C29.0905 12.8749 29.4698 11.853 29.4698 10.7874C29.4698 9.72179 29.0905 8.69983 28.4153 7.94633C27.7401 7.19284 26.8244 6.76953 25.8695 6.76953C24.9147 6.76953 23.999 7.19284 23.3238 7.94633C22.6486 8.69983 22.2693 9.72179 22.2693 10.7874C22.2693 11.853 22.6486 12.8749 23.3238 13.6284C23.999 14.3819 24.9147 14.8052 25.8695 14.8052Z" stroke="#00BFA5" stroke-width="2" stroke-linecap="round" stroke-linejoin="round"/>
</svg>
